<svg width="32.000000" height="32.000000" viewBox="0 0 32 32" fill="none" xmlns="http://www.w3.org/2000/svg" xmlns:xlink="http://www.w3.org/1999/xlink">
	<desc>
			Created with Pixso.
	</desc>
	<defs/>
	<path id="Box" d="M8.46 4.7C9.32 4.52 10.18 4.93 10.6 5.69L12.7 9.45C13.13 10.24 12.99 11.21 12.36 11.84L10.95 13.25C10.3 13.9 10.18 14.91 10.66 15.69C11.45 17.02 12.38 18.2 13.43 19.26C14.49 20.32 15.68 21.24 17 22.04C17.78 22.51 18.79 22.38 19.44 21.73L20.85 20.33C21.48 19.69 22.45 19.56 23.23 19.99L27 22.09C27.76 22.51 28.16 23.37 27.99 24.23L27.75 25.45C27.63 26.04 27.26 26.54 26.73 26.82C21.77 29.46 16.4 27.88 10.6 22.09C4.8 16.29 3.23 10.91 5.87 5.96C6.15 5.43 6.65 5.06 7.24 4.94L8.46 4.7Z" stroke="#464646" stroke-opacity="1.000000" stroke-width="2.000000" stroke-linejoin="round"/>
</svg>
